<svg width="40" height="40" viewBox="0 0 40 40" fill="none" xmlns="http://www.w3.org/2000/svg">
<g clip-path="url(#clip0_153_1218)">
<path d="M18.8419 0.156261C18.2091 0.382824 17.9669 0.562511 16.4357 1.91407L15.0138 3.17189L12.4903 2.97657C9.64659 2.76564 9.32628 2.78126 8.46691 3.20314C7.84191 3.50782 7.20909 4.14064 6.93566 4.73439C6.81847 4.98439 6.41222 6.17189 6.03722 7.3672L5.34972 9.54689L3.43566 10.6797C1.27941 11.9609 0.966907 12.1953 0.584094 12.7578C0.123157 13.4375 -0.0252809 14.0234 0.0137816 14.9453L0.0528441 15.7422L0.927844 17.8594L1.80284 19.9844L0.920032 22.1172L0.0372191 24.2578V25.2031C0.0372191 26.125 0.0450316 26.1484 0.326282 26.7266C0.763782 27.6094 1.10753 27.8906 3.55284 29.3594L5.73253 30.6641L6.22472 32.7344C6.50597 33.9063 6.81066 34.9922 6.92784 35.2344C7.21691 35.8281 7.92003 36.5156 8.52941 36.7969C9.38097 37.1875 9.74034 37.2109 12.4982 36.9922C14.8732 36.8047 14.9513 36.8047 15.1075 36.9375C16.5607 38.2266 17.9122 39.375 18.131 39.5156C19.17 40.1484 20.7247 40.1719 21.7872 39.5547C22.0607 39.3984 23.2716 38.375 24.8888 36.9375C25.045 36.7969 25.1153 36.7969 27.5294 36.9922C30.3497 37.2188 30.6388 37.2031 31.5372 36.7578C32.1778 36.4375 32.7638 35.8516 33.0763 35.2109C33.1857 34.9922 33.4982 33.875 33.7716 32.7344L34.2716 30.6641L36.3341 29.4375C38.7638 27.9844 39.2325 27.6016 39.6622 26.7422C39.92 26.2188 39.9591 26.0781 39.9825 25.4219C40.006 25.0156 39.9747 24.5313 39.9278 24.3438C39.881 24.1484 39.4669 23.0938 39.0138 21.9844L38.1857 19.9844L39.0685 17.8594L39.9513 15.7422L39.9825 14.9453C40.0216 13.9766 39.8497 13.3672 39.3419 12.6719C38.9122 12.0938 38.6544 11.9141 36.2872 10.5078C35.2169 9.87501 34.3185 9.34376 34.3028 9.32814C34.2872 9.31251 34.0528 8.38282 33.7794 7.25782C33.506 6.12501 33.1935 5.01564 33.0841 4.78907C32.8185 4.21095 32.1153 3.48439 31.5216 3.19532C30.6778 2.78126 30.3419 2.76564 27.506 2.97657L24.9825 3.17189L23.5607 1.91407C22.006 0.539074 21.7872 0.382824 21.1232 0.156261C20.5294 -0.0546761 19.4278 -0.0468636 18.8419 0.156261ZM21.1466 7.21876C23.1622 7.33595 25.5919 8.2422 27.4982 9.59376C28.4435 10.2656 29.7325 11.5547 30.4044 12.5C31.0997 13.4766 31.8653 14.9844 32.2169 16.0859C32.6388 17.3828 32.8107 18.5234 32.8107 20C32.8107 22.1406 32.3966 23.8984 31.4357 25.7813C30.7716 27.0781 30.0607 28.0625 29.0607 29.0625C26.6232 31.5 23.4357 32.8203 19.9982 32.8203C17.2872 32.8203 14.7325 32 12.4982 30.4063C11.5528 29.7344 10.2638 28.4453 9.59191 27.5C8.48253 25.9453 7.65441 23.9609 7.34191 22.1328C7.13097 20.9063 7.13097 19.0938 7.34191 17.8672C7.65441 16.0391 8.48253 14.0547 9.59191 12.5C11.7325 9.48439 15.4122 7.43751 19.0997 7.19532C19.5763 7.16407 20.0685 7.14845 20.1935 7.16407C20.3263 7.17189 20.7482 7.20314 21.1466 7.21876Z" fill="#28C79E"/>
<path d="M18.1309 9.57816C13.8496 10.2969 10.2715 13.9063 9.56836 18.2032C9.41992 19.1563 9.41992 20.8438 9.56836 21.7969C10.2715 26.1328 13.8652 29.7266 18.2012 30.4297C19.1543 30.5782 20.8418 30.5782 21.7949 30.4297C26.1309 29.7266 29.7246 26.1328 30.4277 21.7969C30.5762 20.8438 30.5762 19.1563 30.4277 18.2032C29.7246 13.8672 26.1309 10.2735 21.7949 9.57034C20.8809 9.42191 19.0293 9.42972 18.1309 9.57816ZM26.459 15.5469C26.5996 15.625 26.7637 15.8047 26.834 15.9297C26.9746 16.2032 26.9902 16.7344 26.8652 16.9766C26.7402 17.2188 19.6152 24.3594 19.3574 24.5C19.084 24.6407 18.5684 24.6407 18.2949 24.5C18.0371 24.3594 13.2559 19.5625 13.1309 19.3203C13.0059 19.0782 13.0215 18.5469 13.1621 18.2735C13.4043 17.8125 14.1621 17.5782 14.6309 17.8203C14.7246 17.8672 15.709 18.8047 16.8184 19.9063L18.8262 21.9141L22.0137 18.7422C23.7637 16.9922 25.2637 15.5235 25.3496 15.4766C25.6074 15.3438 26.1855 15.375 26.459 15.5469Z" fill="#28C79E"/>
</g>
<defs>
<clipPath id="clip0_153_1218">
<rect width="40" height="40" fill="white"/>
</clipPath>
</defs>
</svg>
