<svg width="200" height="80" viewBox="0 0 200 80" fill="none" xmlns="http://www.w3.org/2000/svg">
<path d="M108.75 15.1056C108.338 15.2085 105.92 15.5687 103.347 15.8775C95.6789 16.9067 89.9666 18.605 82.4017 22.2073C79.9316 23.3909 78.9023 24.1114 78.9023 24.8318C78.9023 25.5523 79.0567 25.6552 79.5713 25.2435C80.3947 24.5231 89.2976 21.0237 91.7678 20.4576C100.156 18.3991 103.604 17.936 110.757 17.936C119.248 17.936 123.159 18.7594 128.048 21.5383C134.532 25.2435 136.797 31.8306 133.761 38.2634C132.68 40.6821 128.923 44.6961 127.791 44.6961C127.482 44.6961 127.276 45.6224 127.276 46.7545C127.276 49.0703 127.482 49.1732 129.747 47.9896C132.371 46.7031 136.076 42.6376 137.414 39.6014C138.958 36.1534 139.164 30.1324 137.826 26.9932C135.665 21.8471 129.386 17.6787 121.358 16.1348C117.19 15.3629 110.14 14.7453 108.75 15.1056Z" fill="#8B8B8B"/>
<path d="M121.1 37.1825C121.1 46.9602 121.151 47.2175 122.232 47.9894C124.65 49.6877 124.702 49.5333 124.702 38.0059V27.1989H122.901H121.1V37.1825Z" fill="#8B8B8B"/>
<path d="M72.7266 29.5148C72.7266 31.2645 72.778 31.3159 74.785 31.3159C76.792 31.3159 76.8435 31.2645 76.8435 29.5148C76.8435 27.7651 76.792 27.7136 74.785 27.7136C72.778 27.7136 72.7266 27.7651 72.7266 29.5148Z" fill="#8B8B8B"/>
<path d="M96.3984 37.697C96.3984 45.4163 96.5014 46.1882 97.4791 47.4747C98.354 48.5554 98.9715 48.8127 100.824 48.8127C102.986 48.8127 103.088 48.7613 103.088 47.2689C103.088 45.9823 102.883 45.725 101.802 45.725C100.515 45.725 100.515 45.6736 100.515 41.0935C100.515 36.5134 100.515 36.4619 101.802 36.4619C102.883 36.4619 103.088 36.2046 103.088 34.9181C103.088 33.6315 102.883 33.3742 101.802 33.3742C100.67 33.3742 100.515 33.1684 100.515 31.3158V29.2573H98.4569H96.3984V37.697Z" fill="#8B8B8B"/>
<path d="M67.0145 32.9626C63.6181 37.2854 62.2286 40.6819 62.0227 45.4678C61.714 52.6725 64.5444 57.8701 70.8227 61.318C80.0858 66.4127 91.8191 67.3391 108.235 64.1484C111.838 63.4794 121.049 60.4432 123.725 59.1052C125.629 58.0759 125.732 57.973 125.732 55.5029C125.732 52.7754 125.269 52.3637 123.417 53.6502C120.689 55.5029 111.683 58.2818 102.42 60.1344C97.6343 61.1122 83.4823 60.9063 79.1595 59.8256C72.1607 58.1274 67.5291 54.9368 65.728 50.5625C63.8754 46.1368 65.3163 37.8 68.6098 33.6316C70.1537 31.7275 70.5654 30.2866 69.6905 30.2866C69.4332 30.2866 68.2496 31.5217 67.0145 32.9626Z" fill="#8B8B8B"/>
<path d="M72.8308 40.013C72.9852 47.0117 73.4484 48.3498 75.8671 48.9673C76.7934 49.2246 76.8449 48.8644 76.8449 41.2995V33.3744H74.7349H72.625L72.8308 40.013Z" fill="#8B8B8B"/>
<path d="M80.4453 41.0935V48.8127H82.5038H84.5623V42.6373V36.4619H86.5178C87.5985 36.4619 88.7307 36.7192 89.0909 37.0795C89.5026 37.4912 89.7084 39.6011 89.7084 43.2549V48.8127H91.5096H93.3107V42.4315V36.0502L91.7154 34.7122C90.2745 33.4771 89.7599 33.3742 85.2827 33.3742H80.4453V41.0935Z" fill="#8B8B8B"/>
<path d="M108.134 34.1463C104.738 35.9989 103.4 42.4316 105.664 46.1368C107.414 49.0187 111.582 50.0994 115.133 48.607C117.5 47.6292 117.912 46.8058 116.471 45.7251C115.339 44.9018 115.133 44.8503 114.052 45.5708C112.611 46.5485 109.935 46.1368 108.958 44.7988C107.517 42.8948 108.031 42.6374 113.126 42.6374H118.015V40.2702C118.015 37.5427 116.934 35.4328 114.927 34.1977C113.177 33.1685 109.987 33.1685 108.134 34.1463ZM113.486 37.3369C114.001 37.8 114.412 38.572 114.412 39.138C114.412 39.91 114.001 40.0644 111.325 40.0644C108.803 40.0644 108.237 39.91 108.237 39.1895C108.237 36.8223 111.634 35.6386 113.486 37.3369Z" fill="#8B8B8B"/>
</svg>
