<svg width="200" height="80" viewBox="0 0 200 80" fill="none" xmlns="http://www.w3.org/2000/svg">
<g clip-path="url(#clip0_143_692)">
<path d="M91.3668 20.2494C85.4922 20.7482 77.4562 21.9952 72.6623 23.1867C62.2154 25.7638 55.3987 28.9228 51.2698 33.1347C48.9422 35.5455 48 37.513 48 40.0346C48 42.5563 48.9422 44.5791 51.2975 46.9068C57.5047 53.1971 69.8912 57.3537 89.0114 59.6259C93.1403 60.1247 110.653 60.1247 114.782 59.6259C130.826 57.7139 142.132 54.4718 149.143 49.7333C151.554 48.1261 154.076 45.4659 154.99 43.5816C156.126 41.3093 156.126 38.76 154.99 36.4877C154.076 34.5757 151.498 31.8878 149.115 30.2806C141.661 25.265 127.917 21.5518 112.066 20.2494C108.021 19.9169 95.3294 19.9169 91.3668 20.2494ZM98.5438 31.7769C98.2113 32.3588 97.7679 33.0239 97.6017 33.2456C97.4077 33.4673 97.186 33.8552 97.0752 34.0769C96.992 34.2986 96.4655 35.1853 95.9667 36.0166C95.0246 37.5407 95.0246 37.5407 95.5234 38.372C95.8005 38.8154 96.8535 40.6997 97.8788 42.5286C98.904 44.3575 99.9293 46.0755 100.179 46.3249C100.567 46.796 100.29 46.8237 94.886 46.8237C89.7319 46.8237 89.15 46.7683 89.15 46.3526C89.15 46.1032 88.7066 45.0779 88.1247 44.0804C86.2958 40.7828 86.3512 40.7828 86.4344 43.9972L86.5175 46.8237H81.8067H77.0959V38.9262V31.0287H81.7236H86.3512L86.4344 33.6612L86.5175 36.3214L87.4874 34.8805C88.0139 34.1046 88.7343 33.0239 89.0946 32.4974C89.4548 31.9709 89.6765 31.3613 89.5933 31.1396C89.4825 30.8071 90.2307 30.7516 94.3041 30.7516H99.1812L98.5438 31.7769ZM119.354 33.1625V35.601H115.558C112.15 35.601 111.734 35.6564 111.651 36.072C111.568 36.5154 111.845 36.5708 114.616 36.5708H117.692V38.7045V40.8659H114.727C111.817 40.8659 111.734 40.8937 111.651 41.5033L111.54 42.1683L115.447 42.0575L119.354 41.9744V44.3852V46.8237H111.041H102.756L102.673 38.7877L102.59 30.7516H110.986H119.354V33.1625ZM139.528 30.9179C139.361 31.0565 139.915 32.636 141.467 36.7094C141.772 37.4576 142.742 40.0623 143.684 42.4454L145.347 46.8237H140.442H135.537L135.177 45.4382L134.817 44.0526H132.655H130.494L130.051 45.1888C129.801 45.7984 129.663 46.4357 129.746 46.5743C129.857 46.7129 128.249 46.8237 125.755 46.8237C121.848 46.8237 121.571 46.796 121.848 46.3249C122.43 45.2719 126.864 31.4721 126.725 31.1396C126.614 30.8071 127.723 30.7516 133.126 30.7516C136.729 30.7516 139.611 30.8348 139.528 30.9179ZM71.9695 38.9262V46.8237H67.2587H62.548V38.9262V31.0287H67.2587H71.9695V38.9262Z" fill="#8B8B8B"/>
<path d="M132.018 39.2035L131.547 40.1733H132.517C133.431 40.1733 133.459 40.1733 133.154 39.342C132.766 38.1505 132.517 38.1228 132.018 39.2035Z" fill="#ECC115"/>
</g>
<defs>
<clipPath id="clip0_143_692">
<rect width="200" height="80" rx="15" fill="white"/>
</clipPath>
</defs>
</svg>
