<svg width="198" height="80" viewBox="0 0 198 80" fill="none" xmlns="http://www.w3.org/2000/svg">
<path d="M136.48 25.4328C134.762 25.631 133.771 25.816 132.846 26.1067C129.411 27.19 126.742 29.4361 125.21 32.5277C124.047 34.8794 123.585 37.1387 123.704 40.0057C123.809 42.8595 124.51 45.1187 125.963 47.3516C127.932 50.3639 131.129 52.3721 134.96 52.9799C136.321 53.1913 139.148 53.1913 140.509 52.9799C146.402 52.0418 150.59 47.8933 151.621 41.9611C151.925 40.2567 151.819 37.0858 151.409 35.5532C150.207 30.9555 147.366 27.7714 143.165 26.2916C142.518 26.067 141.513 25.7896 140.919 25.6971C139.783 25.4857 137.246 25.3404 136.48 25.4328ZM139.809 31.9596C141.844 32.5805 143.376 34.2717 144.024 36.6234C144.407 38.0107 144.433 40.4285 144.09 41.7365C143.191 45.0659 140.932 46.9156 137.735 46.9156C134.551 46.9288 132.212 44.9866 131.406 41.6968C131.116 40.5342 131.102 38.1296 131.393 36.9141C131.644 35.8175 132.252 34.5359 132.86 33.8225C134.524 31.8935 137.22 31.1669 139.809 31.9596Z" fill="#8B8B8B"/>
<path d="M54.4336 39.2924V52.1741H61.8323H69.231V49.1353V46.0965L65.3731 46.0701L61.502 46.0305L61.4624 36.214L61.436 26.4107H57.9348H54.4336V39.2924Z" fill="#8B8B8B"/>
<path d="M72.3107 35.2891C72.3503 44.009 72.3503 44.2072 72.641 45.3038C73.6583 49.1353 75.9968 51.4474 79.8679 52.4515C80.9117 52.7289 81.3477 52.7554 83.5673 52.7554C85.8398 52.7554 86.1965 52.7157 87.3591 52.3986C89.2881 51.8834 90.6225 51.1435 91.8909 49.8619C93.1064 48.6332 93.7537 47.5366 94.2558 45.8059C94.7843 43.9694 94.8636 42.5161 94.8636 34.1925V26.4106H91.2963H87.7423L87.7026 34.8927L87.663 43.3881L87.3591 44.1279C86.6589 45.8587 85.6416 46.625 83.8976 46.7307C81.9158 46.8496 80.6078 46.1097 79.8547 44.4847L79.4716 43.6523L79.4319 35.0249L79.3923 26.4106H75.8251H72.2578L72.3107 35.2891Z" fill="#8B8B8B"/>
<path d="M99.6172 39.2924V52.1741H103.184H106.752V46.6118C106.752 43.5598 106.805 41.0892 106.857 41.1288C106.91 41.1685 108.628 43.6655 110.662 46.6779L114.349 52.1609L118.748 52.1741C121.153 52.1741 123.135 52.1476 123.135 52.108C123.135 52.0816 120.902 49.0957 118.18 45.4888C115.458 41.8819 113.226 38.896 113.226 38.8432C113.226 38.8035 115.406 36.0026 118.048 32.6335C120.704 29.2512 122.87 26.4767 122.87 26.4503C122.87 26.4239 121.007 26.4107 118.748 26.4107L114.613 26.4239L110.715 31.8672L106.818 37.3106L106.778 31.854L106.752 26.4107H103.184H99.6172V39.2924Z" fill="#8B8B8B"/>
<path d="M156.164 39.2924V52.1741H159.731H163.299V39.2924V26.4107H159.731H156.164V39.2924Z" fill="#8B8B8B"/>
<path d="M168.586 39.2924V52.1741H176.051H183.516V49.1353V46.0965H179.618H175.72V36.2536V26.4107H172.153H168.586V39.2924Z" fill="#8B8B8B"/>
<path d="M14.5352 39.6886V56.666H31.5126H48.49V39.6886V22.7112H31.5126H14.5352V39.6886ZM21.5375 26.6483C21.7885 26.7672 22.1321 27.0711 22.2906 27.3221L22.5945 27.7714V37.4293C22.5945 46.7966 22.6077 47.1005 22.8587 47.5101C23.0041 47.7479 23.2551 47.9725 23.4136 48.0122C23.5854 48.0518 27.6547 48.065 32.4639 48.0518L41.2102 48.0122L38.8981 42.5688C36.8106 37.6407 36.586 37.0462 36.586 36.3459C36.586 35.91 36.6785 35.3154 36.8238 34.9323C37.1013 34.2188 41.0649 27.6128 41.5405 27.0843C41.8708 26.7144 42.5314 26.4105 42.9938 26.4105C43.1788 26.4105 43.5751 26.503 43.8658 26.6219C44.5528 26.8994 44.9228 27.4939 44.9228 28.3527C44.9228 28.934 44.8171 29.185 44.0376 30.4534C40.9724 35.4872 40.6949 35.976 40.6949 36.3195C40.6949 36.5177 42.0293 40.1114 43.6676 44.2996C45.3059 48.4878 46.6403 51.9361 46.6403 51.9758C46.6403 52.0154 41.1573 52.0418 34.4457 52.0418C24.6556 52.0418 22.1188 52.0022 21.5639 51.8701C20.322 51.5398 19.3179 50.6017 18.8819 49.3334C18.7234 48.8974 18.6969 46.942 18.6969 38.3013C18.6969 28.0356 18.6969 27.7846 18.9612 27.3486C19.2518 26.8597 20.0578 26.4237 20.6787 26.4105C20.9033 26.4105 21.2865 26.5162 21.5375 26.6483ZM28.0114 26.6615C28.2624 26.7937 28.5927 27.1108 28.7381 27.3486C28.9891 27.7846 29.0023 28.0752 29.0419 35.0247L29.0816 42.2517L29.4779 42.582C30.0196 43.0444 30.5745 43.0312 31.0634 42.5424L31.4465 42.1592V35.038C31.4465 28.5377 31.4729 27.8903 31.6843 27.4807C32.0411 26.754 32.5299 26.4766 33.4283 26.4766C34.3267 26.4766 34.8156 26.754 35.1723 27.4807C35.3837 27.8903 35.4101 28.5377 35.4101 35.0908C35.4101 39.8868 35.3573 42.4763 35.2648 42.952C34.7759 45.2508 33.032 46.7306 30.667 46.8627C29.2401 46.942 28.3549 46.7306 27.364 46.0964C26.3863 45.4622 25.7257 44.577 25.369 43.4672C25.118 42.6745 25.1048 42.2781 25.1048 35.1965V27.7714L25.4086 27.3221C25.9768 26.4634 27.113 26.1727 28.0114 26.6615Z" fill="#8B8B8B"/>
<path d="M137.51 25.3142C137.669 25.3406 137.907 25.3406 138.039 25.3142C138.158 25.2745 138.026 25.2481 137.735 25.2613C137.444 25.2613 137.339 25.2877 137.51 25.3142Z" fill="#8B8B8B"/>
<path d="M79.4707 34.2718C79.4707 38.6978 79.4839 40.4947 79.4971 38.2619C79.5236 36.0158 79.5236 32.3957 79.4971 30.2025C79.4839 28.0093 79.4707 29.8326 79.4707 34.2718Z" fill="#8B8B8B"/>
<path d="M94.9297 34.4038C94.9297 38.9091 94.9429 40.772 94.9561 38.5391C94.9825 36.3063 94.9825 32.6202 94.9561 30.3477C94.9429 28.0752 94.9297 29.8985 94.9297 34.4038Z" fill="#8B8B8B"/>
<path d="M133.231 33.5713L132.848 34.0073L133.284 33.6242C133.508 33.3996 133.706 33.2146 133.706 33.1882C133.706 33.0825 133.601 33.175 133.231 33.5713Z" fill="#8B8B8B"/>
<path d="M133.309 45.1057C133.56 45.3567 133.784 45.5681 133.824 45.5681C133.864 45.5681 133.692 45.3567 133.441 45.1057C133.19 44.8547 132.965 44.6433 132.926 44.6433C132.886 44.6433 133.058 44.8547 133.309 45.1057Z" fill="#8B8B8B"/>
<path d="M91.8898 50.0864L91.3613 50.6545L91.9294 50.1261C92.2333 49.8486 92.4843 49.5976 92.4843 49.5712C92.4843 49.4655 92.3654 49.5712 91.8898 50.0864Z" fill="#8B8B8B"/>
<path d="M137.51 53.3234C137.669 53.3499 137.907 53.3499 138.039 53.3234C138.158 53.2838 138.026 53.2574 137.735 53.2706C137.444 53.2706 137.339 53.297 137.51 53.3234Z" fill="#8B8B8B"/>
</svg>
