<svg width="40" height="40" viewBox="0 0 40 40" fill="none" xmlns="http://www.w3.org/2000/svg">
<path fill-rule="evenodd" clip-rule="evenodd" d="M20 28C24.4183 28 28 24.4183 28 20C28 15.5817 24.4183 12 20 12C15.5817 12 12 15.5817 12 20C12 24.4183 15.5817 28 20 28ZM20 30C25.5228 30 30 25.5228 30 20C30 14.4772 25.5228 10 20 10C14.4772 10 10 14.4772 10 20C10 25.5228 14.4772 30 20 30Z" fill="#8D9197"/>
<path fill-rule="evenodd" clip-rule="evenodd" d="M21.7467 26.1766C22.4854 24.6992 23 22.5183 23 20C23 17.4817 22.4854 15.3008 21.7467 13.8234C20.9482 12.2263 20.2151 12 20 12C19.7849 12 19.0518 12.2263 18.2533 13.8234C17.5146 15.3008 17 17.4817 17 20C17 22.5183 17.5146 24.6992 18.2533 26.1766C19.0518 27.7737 19.7849 28 20 28C20.2151 28 20.9482 27.7737 21.7467 26.1766ZM20 30C22.7614 30 25 25.5228 25 20C25 14.4772 22.7614 10 20 10C17.2386 10 15 14.4772 15 20C15 25.5228 17.2386 30 20 30Z" fill="#8D9197"/>
<path fill-rule="evenodd" clip-rule="evenodd" d="M29.9506 21C29.9833 20.6711 30 20.3375 30 20C30 19.6625 29.9833 19.3289 29.9506 19H10.0494C10.0167 19.3289 10 19.6625 10 20C10 20.3375 10.0167 20.6711 10.0494 21H29.9506Z" fill="#8D9197"/>
<rect x="0.588235" y="0.588235" width="38.8235" height="38.8235" rx="19.4118" stroke="#F3F3F3" stroke-width="1.17647"/>
</svg>
