<svg width="40" height="40" viewBox="0 0 40 40" fill="none" xmlns="http://www.w3.org/2000/svg">
<rect width="40" height="40" fill="#CBCBCB"/>
<g id="Home">
<path d="M-717 -1634C-717 -1635.1 -716.105 -1636 -715 -1636H2080C2081.1 -1636 2082 -1635.1 2082 -1634V3278C2082 3279.1 2081.1 3280 2080 3280H-715C-716.105 3280 -717 3279.1 -717 3278V-1634Z" fill="#5A5A5A"/>
<g id="Home_2" clip-path="url(#clip0_0_1)">
<rect width="1440" height="3663" transform="translate(-471 -1500)" fill="white"/>
<g id="Frame 243">
<g id="Frame 241">
<g id="facts">
<g id="2">
<g id="Frame 113">
<g id="image 59 (traced)" clip-path="url(#clip1_0_1)">
<g id="Black">
<path id="Vector" d="M8.67285 2.39844C7.2041 2.54688 5.10254 3.00781 3.73535 3.48438C2.10254 4.05469 0.555664 4.77344 0.235352 5.11719L0.0400391 5.32812L0.0166016 12.4297L0.000976562 19.5312L0.211914 19.4766C0.579102 19.3828 3.27441 19.4141 4.06348 19.5234C5.79785 19.7578 7.47754 20.2656 9.02441 21.0156C13.2822 23.1016 15.8369 26.5391 16.79 31.4922C16.9229 32.2109 17.1104 33.6797 17.1104 34.0625C17.1104 34.1562 17.2354 34.2422 17.4854 34.3359C17.6885 34.4141 18.5947 34.8203 19.501 35.2422C22.1104 36.4453 23.9229 37.0391 26.2432 37.4375C27.0869 37.5859 27.54 37.6094 29.3369 37.6172C31.6025 37.6172 32.3838 37.5391 34.0635 37.1406C36.3057 36.6172 39.2354 35.4531 39.7666 34.8828C39.9541 34.6797 39.9619 34.6406 39.9854 33.3281L40.0088 31.9766L38.501 31.9297C37.2744 31.8984 36.8369 31.8516 36.1729 31.6953C35.1416 31.4531 34.1025 31.0547 33.0479 30.5C30.3916 29.0938 29.6729 28.2031 28.3604 24.6875C27.2354 21.6797 26.4932 20.7031 24.1807 19.1641C23.251 18.5469 22.6729 18.2188 20.8994 17.3047C18.0635 15.8438 16.9775 15.125 15.9385 14.0156C14.4385 12.4219 13.5557 10.2344 13.165 7.17969C13.0947 6.64844 13.0166 5.35938 12.9932 4.32812L12.9463 2.44531L12.4307 2.39062C11.9072 2.34375 9.16504 2.34375 8.67285 2.39844Z" fill="#28C79E"/>
<path id="Vector_2" d="M15.2354 3.72656C15.2354 4.98438 15.376 6.76563 15.5479 7.75781C15.7666 9.04688 16.04 9.92969 16.54 10.9375C16.9385 11.75 17.0479 11.9063 17.7666 12.625C18.7041 13.5625 19.2275 13.8984 21.8682 15.2656C27.4229 18.1484 28.8525 19.5703 30.4307 23.7891C31.6025 26.9219 32.0322 27.4609 34.2822 28.5938C35.8604 29.3828 36.7275 29.6016 38.6182 29.6641L40.001 29.7109L39.9854 17.5156L39.9619 5.32813L39.7666 5.11719C39.2666 4.58594 38.751 4.55469 37.8291 5C34.0166 6.84375 29.9932 7.42969 26.1729 6.71094C24.2666 6.35156 22.9307 5.89063 20.5088 4.76563C19.6104 4.35156 18.4697 3.85938 17.9854 3.67969C17.1182 3.35938 15.54 2.89063 15.3369 2.89063C15.2588 2.89063 15.2354 3.08594 15.2354 3.72656ZM32.8213 13.0625C33.4854 13.2578 34.0557 13.9922 34.0635 14.6406C34.0713 16.0156 32.6885 16.8438 31.5088 16.1719C30.29 15.4688 30.3838 13.7578 31.6729 13.1563C32.1182 12.9453 32.3838 12.9297 32.8213 13.0625Z" fill="#28C79E"/>
<path id="Vector_3" d="M1.09473 21.6953C0.860352 21.7031 0.516602 21.7344 0.329102 21.7656L0.000976562 21.8047L0.0166016 28.2422L0.0400391 34.6719L0.235352 34.8828C0.735352 35.4141 1.25098 35.4453 2.17285 35C5.8916 33.2031 9.9541 32.586 13.6104 33.25C13.9697 33.3125 14.376 33.3906 14.5244 33.4141L14.79 33.461L14.7354 32.961C14.4854 30.7266 13.4775 28.0235 12.3135 26.4766C10.6416 24.2656 7.84473 22.5625 4.86035 21.9531C4.13379 21.8047 2.25098 21.625 1.75879 21.6563C1.63379 21.6641 1.3291 21.6797 1.09473 21.6953Z" fill="#28C79E"/>
</g>
</g>
</g>
</g>
</g>
</g>
</g>
</g>
<path d="M-715 -1635H2080V-1637H-715V-1635ZM2081 -1634V3278H2083V-1634H2081ZM2080 3279H-715V3281H2080V3279ZM-716 3278V-1634H-718V3278H-716ZM-715 3279C-715.552 3279 -716 3278.55 -716 3278H-718C-718 3279.66 -716.657 3281 -715 3281V3279ZM2081 3278C2081 3278.55 2080.55 3279 2080 3279V3281C2081.66 3281 2083 3279.66 2083 3278H2081ZM2080 -1635C2080.55 -1635 2081 -1634.55 2081 -1634H2083C2083 -1635.66 2081.66 -1637 2080 -1637V-1635ZM-715 -1637C-716.657 -1637 -718 -1635.66 -718 -1634H-716C-716 -1634.55 -715.552 -1635 -715 -1635V-1637Z" fill="black" fill-opacity="0.1"/>
</g>
<defs>
<clipPath id="clip0_0_1">
<rect width="1440" height="3663" fill="white" transform="translate(-471 -1500)"/>
</clipPath>
<clipPath id="clip1_0_1">
<rect width="40" height="40" fill="white"/>
</clipPath>
</defs>
</svg>
