<svg width="20" height="29" viewBox="0 0 20 29" fill="none" xmlns="http://www.w3.org/2000/svg">
<path d="M20 20.819C20.0033 22.6404 18.1058 23.7794 16.5905 22.8658L6.6402 16.8667C5.94105 16.4452 5.51008 15.669 5.50857 14.8287L5.48719 2.86888C5.48393 1.04754 7.38135 -0.0915466 8.89668 0.822059L18.847 6.8212C19.5461 7.24273 19.9771 8.0189 19.9786 8.85924L20 20.819Z" fill="#602CF0"/>
<path d="M4.18577e-06 8.18098C-0.0032522 6.35963 1.89417 5.22055 3.40949 6.13416L13.3598 12.1333C14.059 12.5548 14.4899 13.331 14.4914 14.1713L14.5128 26.1311C14.5161 27.9525 12.6186 29.0915 11.1033 28.1779L1.15301 22.1788C0.453861 21.7573 0.0228895 20.9811 0.0213871 20.1408L4.18577e-06 8.18098Z" fill="#28C79E"/>
</svg>
