<svg width="154" height="55" viewBox="0 0 154 55" fill="none" xmlns="http://www.w3.org/2000/svg">
<path d="M57.1822 24.3514C57.514 24.3514 57.8021 24.4474 58.0466 24.6395C58.3085 24.8316 58.4831 25.0848 58.5704 25.3991L63.8089 42.4242H59.7229L56.0298 29.1446C55.9599 28.8478 55.8901 28.5509 55.8202 28.2541C55.7504 27.9398 55.6893 27.6429 55.6369 27.3635H54.9297C54.8773 27.6429 54.8162 27.9398 54.7463 28.2541C54.694 28.5509 54.6241 28.8478 54.5368 29.1446L50.8437 42.4242H46.7314L51.9961 25.3991C52.0834 25.0848 52.2493 24.8316 52.4938 24.6395C52.7557 24.4474 53.0526 24.3514 53.3843 24.3514H57.1822ZM59.9586 34.645V37.6572H50.5817V34.645H59.9586ZM69.3177 24.0895L69.2915 38.2858C69.2915 38.7223 69.4225 39.0541 69.6844 39.2811C69.9464 39.4906 70.3305 39.5954 70.8369 39.5954H71.8846L72.3299 42.2147C72.1203 42.3194 71.8235 42.4067 71.4393 42.4766C71.0552 42.5639 70.6623 42.625 70.2607 42.6599C69.859 42.7123 69.5185 42.7385 69.2392 42.7385C68.0692 42.7385 67.1438 42.4329 66.4628 41.8218C65.7818 41.2106 65.4413 40.355 65.4413 39.2549V24.0895H69.3177ZM79.2011 23.5394C79.5154 23.5394 79.9258 23.5482 80.4321 23.5656C80.956 23.5831 81.4798 23.618 82.0037 23.6704C82.545 23.7053 83.0077 23.7577 83.3919 23.8275L83.0514 26.3158H80.5893C79.9258 26.3158 79.463 26.4468 79.2011 26.7087C78.9392 26.9706 78.8082 27.4246 78.8082 28.0707V42.4242H74.9317V27.5731C74.9317 26.7524 75.0627 26.0452 75.3246 25.4515C75.604 24.8578 76.058 24.395 76.6866 24.0633C77.3152 23.714 78.1534 23.5394 79.2011 23.5394ZM82.4228 29.4851V32.0258H72.6792V29.6161L75.0103 29.4851H82.4228ZM91.1283 29.1446C92.2109 29.1446 93.1276 29.293 93.8785 29.5899C94.6293 29.8693 95.1968 30.3582 95.581 31.0567C95.9826 31.7377 96.1834 32.6806 96.1834 33.8855V42.4242H93.0927L92.5427 39.6216L92.2807 39.2287V33.8593C92.2807 33.2481 92.1323 32.8028 91.8355 32.5234C91.5561 32.2441 91.0148 32.1044 90.2115 32.1044C89.548 32.1044 88.7186 32.1306 87.7233 32.1829C86.7279 32.2179 85.7064 32.2702 84.6587 32.3401L84.292 29.7732C84.9207 29.651 85.6453 29.5462 86.466 29.4589C87.2867 29.3716 88.1074 29.3018 88.9281 29.2494C89.7488 29.1795 90.4822 29.1446 91.1283 29.1446ZM94.5857 34.4617L94.5595 36.6357L88.7972 36.6619C88.3257 36.6619 87.9852 36.7754 87.7756 37.0024C87.5836 37.2294 87.4875 37.5349 87.4875 37.9191V38.5477C87.4875 38.9843 87.6098 39.3248 87.8542 39.5692C88.0987 39.7962 88.4916 39.9097 89.0329 39.9097C89.4869 39.9097 89.9758 39.8137 90.4997 39.6216C91.041 39.4295 91.5736 39.1589 92.0974 38.8096C92.6213 38.4604 93.084 38.0501 93.4856 37.5786V39.2549C93.3284 39.5168 93.0927 39.8486 92.7784 40.2502C92.4816 40.6344 92.0974 41.0185 91.6259 41.4027C91.1545 41.7694 90.6044 42.0837 89.9758 42.3456C89.3472 42.6075 88.6313 42.7385 87.828 42.7385C87.0423 42.7385 86.3351 42.5988 85.7064 42.3194C85.0778 42.04 84.5802 41.6297 84.2135 41.0884C83.8468 40.5471 83.6634 39.8748 83.6634 39.0716V37.7357C83.6634 36.7055 84.0127 35.9023 84.7111 35.326C85.4096 34.7498 86.37 34.4617 87.5923 34.4617H94.5857ZM106.328 24.1419C107.9 24.1419 109.148 24.2815 110.074 24.5609C111.017 24.8229 111.698 25.2943 112.117 25.9753C112.536 26.6563 112.745 27.6167 112.745 28.8565C112.745 30.1487 112.492 31.1352 111.986 31.8162C111.497 32.4798 110.685 32.8639 109.55 32.9687V33.1259C110.947 33.2481 111.925 33.7196 112.483 34.5403C113.042 35.3435 113.321 36.4698 113.321 37.9191C113.321 39.1589 113.103 40.1193 112.667 40.8003C112.248 41.4813 111.584 41.9615 110.676 42.2408C109.785 42.5028 108.616 42.6337 107.166 42.6337C105.996 42.6337 104.975 42.625 104.102 42.6075C103.246 42.6075 102.452 42.5901 101.718 42.5552C100.985 42.5202 100.234 42.4766 99.4657 42.4242L99.8586 39.6478C100.278 39.6653 101.081 39.6827 102.268 39.7002C103.473 39.7176 104.87 39.7264 106.459 39.7264C107.192 39.7264 107.769 39.6565 108.188 39.5168C108.607 39.3771 108.895 39.1239 109.052 38.7572C109.227 38.3731 109.314 37.8318 109.314 37.1333C109.314 36.3825 109.227 35.815 109.052 35.4308C108.877 35.0292 108.572 34.7498 108.135 34.5926C107.716 34.4355 107.131 34.3482 106.38 34.3307H99.8324V31.7901H106.328C106.974 31.7726 107.481 31.7027 107.847 31.5805C108.231 31.4583 108.502 31.2226 108.659 30.8733C108.816 30.5241 108.895 30.0352 108.895 29.4065C108.895 28.7605 108.808 28.2715 108.633 27.9398C108.476 27.5905 108.196 27.3548 107.795 27.2326C107.393 27.1103 106.834 27.0492 106.119 27.0492C105.141 27.0492 104.276 27.0492 103.525 27.0492C102.775 27.0492 102.102 27.058 101.509 27.0754C100.915 27.0754 100.365 27.0929 99.8586 27.1278L99.4657 24.3514C100.164 24.2815 100.836 24.2379 101.482 24.2204C102.146 24.1855 102.862 24.168 103.63 24.168C104.399 24.1506 105.298 24.1419 106.328 24.1419ZM103.395 24.3514V42.4242H99.4657V24.3514H103.395ZM122.113 29.1446C124.296 29.1446 125.858 29.52 126.801 30.2709C127.762 31.0043 128.242 32.1044 128.242 33.5711C128.259 34.7585 127.963 35.6491 127.351 36.2428C126.74 36.819 125.684 37.1071 124.182 37.1071H116.953V34.9332H123.108C123.702 34.9332 124.077 34.8109 124.235 34.5665C124.409 34.3045 124.496 33.9466 124.496 33.4926C124.479 32.8814 124.296 32.4623 123.946 32.2353C123.615 31.9909 123.047 31.8686 122.244 31.8686C121.528 31.8686 120.969 31.9647 120.568 32.1567C120.166 32.3488 119.887 32.7155 119.729 33.2568C119.572 33.7981 119.494 34.5839 119.494 35.6142C119.494 36.6968 119.59 37.5349 119.782 38.1286C119.974 38.7049 120.297 39.1065 120.751 39.3335C121.222 39.5605 121.868 39.674 122.689 39.674C123.283 39.674 124.016 39.6565 124.889 39.6216C125.78 39.5692 126.67 39.4906 127.561 39.3859L127.928 41.7694C127.421 42.0138 126.845 42.2059 126.199 42.3456C125.553 42.4853 124.889 42.5813 124.208 42.6337C123.527 42.7036 122.873 42.7385 122.244 42.7385C120.603 42.7385 119.275 42.5028 118.263 42.0313C117.267 41.5424 116.543 40.8003 116.089 39.8049C115.652 38.8096 115.434 37.5349 115.434 35.9808C115.434 34.2871 115.661 32.9425 116.115 31.9472C116.569 30.9519 117.285 30.236 118.263 29.7994C119.24 29.3629 120.524 29.1446 122.113 29.1446ZM135.693 29.1446C136.321 29.1446 137.002 29.1708 137.736 29.2232C138.469 29.2581 139.185 29.3105 139.883 29.3803C140.582 29.4502 141.202 29.5375 141.743 29.6423L141.481 32.052C140.643 32.0345 139.796 32.0258 138.94 32.0258C138.102 32.0083 137.282 31.9996 136.478 31.9996C135.797 31.9821 135.273 31.9909 134.907 32.0258C134.54 32.0607 134.278 32.148 134.121 32.2877C133.981 32.4099 133.911 32.6369 133.911 32.9687C133.911 33.3529 134.042 33.6148 134.304 33.7545C134.566 33.8767 135.003 34.0164 135.614 34.1736L138.993 34.9855C140.075 35.2649 140.879 35.684 141.402 36.2428C141.926 36.7841 142.188 37.6048 142.188 38.7049C142.188 39.7875 141.987 40.6169 141.586 41.1931C141.184 41.7694 140.547 42.171 139.674 42.398C138.801 42.6075 137.674 42.7123 136.295 42.7123C135.754 42.7123 134.95 42.6861 133.885 42.6337C132.82 42.5813 131.65 42.4504 130.375 42.2408L130.637 39.8311C130.952 39.8486 131.353 39.8661 131.842 39.8835C132.331 39.8835 132.864 39.8835 133.44 39.8835C134.016 39.8835 134.592 39.8835 135.169 39.8835C136.059 39.8835 136.74 39.8661 137.212 39.8311C137.683 39.7788 138.006 39.674 138.181 39.5168C138.355 39.3597 138.443 39.1239 138.443 38.8096C138.443 38.4255 138.294 38.1636 137.997 38.0239C137.701 37.8842 137.229 37.7357 136.583 37.5786L133.309 36.7666C132.488 36.5396 131.851 36.2515 131.397 35.9023C130.943 35.553 130.62 35.1252 130.428 34.6188C130.253 34.1125 130.166 33.51 130.166 32.8116C130.166 31.921 130.341 31.2138 130.69 30.69C131.056 30.1487 131.641 29.7558 132.445 29.5113C133.265 29.2668 134.348 29.1446 135.693 29.1446ZM149.738 25.8968V38.2858C149.738 38.7572 149.843 39.0978 150.053 39.3073C150.28 39.4994 150.646 39.5954 151.153 39.5954H152.829L153.248 42.2147C152.934 42.3194 152.55 42.4067 152.096 42.4766C151.642 42.5639 151.188 42.625 150.734 42.6599C150.28 42.7123 149.895 42.7385 149.581 42.7385C148.411 42.7385 147.494 42.4242 146.831 41.7956C146.185 41.167 145.862 40.2851 145.862 39.1501L145.836 25.8968H149.738ZM153.353 29.4851V32.0258H143.583V29.6161L146.097 29.4851H153.353Z" fill="white"/>
<path fill-rule="evenodd" clip-rule="evenodd" d="M22.5209 42.989C32.7351 42.989 41.0154 35.4615 41.0154 26.1758C41.0154 16.8901 32.7351 9.36261 22.5209 9.36261C12.3066 9.36261 4.02637 16.8901 4.02637 26.1758C4.02637 35.4615 12.3066 42.989 22.5209 42.989ZM15.1558 31.556L21.3752 19.1143L22.6845 18.2736L30.3769 31.556H15.1558Z" fill="#2B30FF"/>
<path fill-rule="evenodd" clip-rule="evenodd" d="M38.6252 34.4519L39.9339 31.7741H37.0855L22.2664 6L7.74367 31.7741H4.92611L6.23481 34.4519L1 42.6527H8.68862L11.4696 37.6318H33.2268L35.8442 42.6527H43.3692L38.6252 34.4519ZM22.2664 20.728L28.6463 31.7741H16.0501L22.2664 20.728Z" fill="white"/>
<path d="M38.6252 34.4519L39.9339 31.7741H37.0855M38.6252 34.4519H6.23481M38.6252 34.4519L43.3692 42.6527H35.8442L33.2268 37.6318H11.4696L8.68862 42.6527H1L6.23481 34.4519M38.6252 34.4519L37.0855 31.7741M6.23481 34.4519L4.92611 31.7741H7.74367M6.23481 34.4519L7.74367 31.7741M28.6463 31.7741L22.2664 20.728L16.0501 31.7741M28.6463 31.7741H16.0501M28.6463 31.7741H37.0855M16.0501 31.7741H7.74367M7.74367 31.7741L22.2664 6L37.0855 31.7741" stroke="white" stroke-width="0.336264"/>
</svg>
